<svg width="25" height="24" viewBox="0 0 25 24" fill="none" xmlns="http://www.w3.org/2000/svg">
<path d="M10.8188 2.3999C6.23245 2.3999 2.49664 5.9911 2.49664 10.3999C2.49664 14.8087 6.23245 18.3999 10.8188 18.3999C12.8132 18.3999 14.6448 17.7191 16.0803 16.589L21.0492 21.3655C21.1259 21.4423 21.2177 21.5036 21.3194 21.5458C21.421 21.5881 21.5304 21.6104 21.6411 21.6115C21.7518 21.6125 21.8616 21.5924 21.9642 21.5521C22.0667 21.5119 22.1598 21.4524 22.2381 21.3772C22.3164 21.3019 22.3783 21.2124 22.4201 21.1138C22.462 21.0153 22.4829 20.9097 22.4818 20.8033C22.4807 20.6968 22.4575 20.5917 22.4136 20.494C22.3696 20.3963 22.3059 20.308 22.226 20.2343L17.2571 15.4577C18.4327 14.0778 19.1409 12.3171 19.1409 10.3999C19.1409 5.9911 15.4051 2.3999 10.8188 2.3999ZM10.8188 3.9999C14.5056 3.9999 17.4765 6.8558 17.4765 10.3999C17.4765 13.944 14.5056 16.7999 10.8188 16.7999C7.13198 16.7999 4.16107 13.944 4.16107 10.3999C4.16107 6.8558 7.13198 3.9999 10.8188 3.9999Z" fill="url(#paint0_linear_1_8)"/>
<defs>
<linearGradient id="paint0_linear_1_8" x1="12.4893" y1="2.3999" x2="12.4893" y2="21.6115" gradientUnits="userSpaceOnUse">
<stop stop-color="#00385E"/>
<stop offset="1" stop-color="#61C4D7"/>
</linearGradient>
</defs>
</svg>
