<svg width="28" height="28" viewBox="0 0 28 28" fill="none" xmlns="http://www.w3.org/2000/svg">
<path d="M20.4619 9.75194C20.448 9.64603 20.3958 9.54885 20.3152 9.47873C20.2346 9.40862 20.1312 9.37041 20.0244 9.37132H17.6137V8.49632C17.6137 7.53789 17.233 6.61872 16.5553 5.94101C15.8776 5.2633 14.9584 4.88257 14 4.88257C13.0416 4.88257 12.1224 5.2633 11.4447 5.94101C10.767 6.61872 10.3862 7.53789 10.3862 8.49632V9.37132H7.97123C7.86441 9.37041 7.76095 9.40862 7.68036 9.47873C7.59977 9.54885 7.54761 9.64603 7.53373 9.75194L5.9106 22.0632C5.90234 22.127 5.90826 22.1918 5.92792 22.2531C5.94758 22.3143 5.98051 22.3705 6.02435 22.4176C6.2081 22.6144 6.40935 22.8157 6.6281 23.0126C6.70834 23.0855 6.8128 23.126 6.92123 23.1263H21.0787C21.1872 23.126 21.2916 23.0855 21.3719 23.0126C21.5862 22.8157 21.8094 22.6144 21.9756 22.4176C22.0195 22.3705 22.0524 22.3143 22.072 22.2531C22.0917 22.1918 22.0976 22.127 22.0894 22.0632L20.4619 9.75194ZM11.2744 8.48757C11.2744 7.76121 11.5629 7.06459 12.0765 6.55098C12.5901 6.03736 13.2867 5.74882 14.0131 5.74882C14.7395 5.74882 15.4361 6.03736 15.9497 6.55098C16.4633 7.06459 16.7519 7.76121 16.7519 8.48757V9.36257H11.2612L11.2744 8.48757ZM20.8994 22.2513H7.09185L6.8031 21.9713L8.35185 10.2463H19.6437L21.1925 21.9713L20.8994 22.2513Z" fill="black"/>
</svg>
