<svg width="44" height="44" viewBox="0 0 44 44" fill="none" xmlns="http://www.w3.org/2000/svg">
<g opacity="0.96">
<rect width="44" height="44" rx="22" fill="#BCEDFF"/>
<path d="M20.08 9.2C19.1596 9.2 18.2599 9.29418 17.3938 9.46875C17.2273 9.50223 17.081 9.60045 16.987 9.74181C16.893 9.88317 16.859 10.0561 16.8925 10.2225C16.926 10.3889 17.0242 10.5352 17.1656 10.6292C17.3069 10.7232 17.4798 10.7572 17.6463 10.7237C18.4313 10.5655 19.2468 10.48 20.08 10.48C26.8064 10.48 32.24 15.9136 32.24 22.64C32.24 24.7573 31.698 26.7383 30.7513 28.4662C29.4604 27.6081 28.1529 26.7298 27.8575 26.5487C27.3391 26.2313 26.5838 26.2782 25.8363 26.6737C25.4388 26.883 24.2391 27.5645 23.64 27.9062C23.1088 27.5299 21.8735 26.5804 19.965 24.6712C18.0559 22.7628 17.1076 21.5274 16.7325 20.9975C17.0736 20.3991 17.7564 19.1999 17.965 18.8025C18.3657 18.0422 18.4095 17.2814 18.0838 16.7687C17.7817 16.2926 15.0268 12.1149 14.7388 11.7175C14.2889 11.0929 13.1961 10.8439 12.215 11.5287C12.1779 11.5543 8.51263 14.1895 8.56127 15.7312C8.69887 19.9764 12.8165 24.9583 16.2475 28.39C19.6786 31.823 24.6589 35.9418 28.92 36.08H28.9488C30.4579 36.08 33.0807 32.4596 33.105 32.4237C33.4103 31.9898 33.5541 31.4898 33.5125 31.0162C33.4709 30.5426 33.2518 30.135 32.9113 29.8962C32.8297 29.839 32.1794 29.4143 31.82 29.1737C32.8992 27.2402 33.52 25.0126 33.52 22.64C33.52 15.2224 27.4976 9.2 20.08 9.2ZM22.0388 16.24C20.8861 16.24 20.08 16.9722 20.08 18.0237V18.0387H21.0225V18.0237C21.0225 17.4509 21.4194 17.065 22.0075 17.065C22.5605 17.065 22.9663 17.424 22.9663 17.9187C22.9663 18.3162 22.7749 18.6086 22.0075 19.3875L20.135 21.3025V22H24.0363V21.1475H21.5125V21.0812L22.6888 19.9012C23.643 18.9585 23.9513 18.4598 23.9513 17.8562C23.9513 16.918 23.1485 16.24 22.0388 16.24ZM27.3038 16.38C26.3105 17.875 25.5213 19.1257 25.015 20.0562V20.9525H27.76V22H28.7225V20.9525H29.4813V20.1025H28.7225V16.38H27.3038ZM27.7213 17.1975H27.775V20.1262H25.945V20.0687C26.5991 18.9161 27.1837 17.9917 27.7213 17.1975Z" fill="#007BFF"/>
</g>
</svg>
