<svg width="90" height="40" viewBox="0 0 90 40" fill="none" xmlns="http://www.w3.org/2000/svg">
<g clip-path="url(#clip0_1753_467)">
<path d="M42.1401 40H-48C-48.5523 40 -49 39.5523 -49 39V1C-49 0.447715 -48.5523 0 -48 0H90L70.2489 20L56.3705 34.0533C52.6129 37.8583 47.4879 40 42.1401 40Z" fill="#5AC8FA"/>
<path d="M22.1401 40H-68C-68.5523 40 -69 39.5523 -69 39V1C-69 0.447715 -68.5523 0 -68 0H70L50.2489 20L36.3706 34.0533C32.6129 37.8583 27.4879 40 22.1401 40Z" fill="#007AFF"/>
<path d="M2.14012 40H-88C-88.5523 40 -89 39.5523 -89 39V1C-89 0.447715 -88.5523 0 -88 0H50L30.2489 20L16.3706 34.0533C12.6129 37.8583 7.48786 40 2.14012 40Z" fill="#023E8A"/>
</g>
<defs>
<clipPath id="clip0_1753_467">
<rect width="90" height="40" fill="white"/>
</clipPath>
</defs>
</svg>
