<svg width="21" height="21" viewBox="0 0 21 21" fill="none" xmlns="http://www.w3.org/2000/svg">
<path d="M9.10001 2.1001C5.2423 2.1001 2.10001 5.2424 2.10001 9.1001C2.10001 12.9578 5.2423 16.1001 9.10001 16.1001C10.7776 16.1001 12.3182 15.5044 13.5256 14.5155L17.7051 18.695C17.7696 18.7622 17.8468 18.8158 17.9323 18.8528C18.0178 18.8897 18.1098 18.9093 18.203 18.9102C18.2961 18.9112 18.3885 18.8935 18.4747 18.8583C18.5609 18.8231 18.6393 18.7711 18.7051 18.7052C18.771 18.6393 18.823 18.561 18.8582 18.4748C18.8934 18.3886 18.9111 18.2962 18.9101 18.203C18.9092 18.1099 18.8896 18.0179 18.8527 17.9324C18.8157 17.8469 18.7621 17.7697 18.6949 17.7052L14.5154 13.5257C15.5043 12.3183 16.1 10.7777 16.1 9.1001C16.1 5.2424 12.9577 2.1001 9.10001 2.1001ZM9.10001 3.5001C12.2011 3.5001 14.7 5.99901 14.7 9.1001C14.7 12.2012 12.2011 14.7001 9.10001 14.7001C5.99892 14.7001 3.50001 12.2012 3.50001 9.1001C3.50001 5.99901 5.99892 3.5001 9.10001 3.5001Z" fill="#5C5C5C"/>
</svg>
