<svg width="28" height="28" viewBox="0 0 28 28" fill="none" xmlns="http://www.w3.org/2000/svg">
<path fill-rule="evenodd" clip-rule="evenodd" d="M17.0573 7.68881L17.0966 8.02381H20.324C20.6383 8.02381 20.8931 8.27856 20.8931 8.59284V25.2845C20.8931 25.5987 20.6383 25.8535 20.324 25.8535H1.73565C1.42137 25.8535 1.16663 25.5987 1.16663 25.2845V8.59284C1.16663 8.27856 1.42137 8.02381 1.73565 8.02381H4.96297L5.00242 7.68881C5.35697 4.67759 7.92539 2.3335 11.0298 2.3335C14.1342 2.3335 16.7027 4.67759 17.0573 7.68881ZM6.09256 8.02381H15.9671L15.8926 7.58142C15.5 5.25193 13.47 3.47156 11.0298 3.47156C8.58961 3.47156 6.55958 5.25193 6.16709 7.58142L6.09256 8.02381ZM2.30469 24.7154H19.755V9.16187H17.0995V12.3864C17.0995 12.7007 16.8447 12.9554 16.5305 12.9554C16.2161 12.9554 15.9614 12.7007 15.9614 12.3864V9.16187H6.09822V12.3864C6.09822 12.7007 5.84347 12.9554 5.5292 12.9554C5.21491 12.9554 4.96016 12.7007 4.96016 12.3864V9.16187H2.30469V24.7154Z" fill="#023679" stroke="#023679" stroke-width="0.6"/>
<path d="M20.1342 17.5077C24.3244 17.5077 27.7213 14.1108 27.7213 9.92058C27.7213 5.73035 24.3244 2.3335 20.1342 2.3335C15.944 2.3335 12.5471 5.73035 12.5471 9.92058C12.5471 14.1108 15.944 17.5077 20.1342 17.5077Z" fill="#023679"/>
<path d="M19.1833 13.716V10.8958H16.3409V8.94909H19.1833V6.12891H21.0782V8.94909H23.928V10.8958H21.0782V13.716H19.1833Z" fill="#DCEEFF"/>
</svg>
