<svg width="13" height="13" viewBox="0 0 13 13" fill="none" xmlns="http://www.w3.org/2000/svg">
<g clip-path="url(#clip0_0_154)">
<path d="M1.50647 12.416H9.66539V10.2494H13V2.08081H1.50647V12.416ZM2.26819 2.84253H12.2383V9.48763H8.90367V11.6543H2.26819V2.84253Z" fill="#575757"/>
<path d="M1.50647 0.558594H13V1.32031H1.50647V0.558594Z" fill="#575757"/>
<path d="M0 2.08081H0.761719V12.416H0V2.08081Z" fill="#575757"/>
<path d="M6.70451 5.42078L5.97166 6.65202L5.21906 5.42078H4.57864V7.73142H5.28839V6.71471L5.79015 7.52344H6.13342L6.63519 6.67841L6.64173 7.73142H7.35148L7.34483 5.42078H6.70451Z" fill="#575757"/>
<path d="M8.55614 6.12068C8.77067 5.93253 8.82016 5.81699 8.82016 5.68497C8.82016 5.41758 8.57597 5.24927 8.21287 5.24927C7.87287 5.24927 7.65824 5.38782 7.56253 5.57597L7.94547 5.75758C7.98832 5.67833 8.06429 5.63211 8.16665 5.63211C8.25909 5.63211 8.29866 5.67178 8.29866 5.72455C8.29866 5.76749 8.27882 5.82026 8.17984 5.90278L7.65497 6.35178V6.6521H8.86311V6.2759H8.37453L8.55614 6.12068Z" fill="#575757"/>
</g>
<defs>
<clipPath id="clip0_0_154">
<rect width="13" height="13" fill="white"/>
</clipPath>
</defs>
</svg>
