<svg width="28" height="28" viewBox="0 0 28 28" fill="none" xmlns="http://www.w3.org/2000/svg">
<path d="M12.32 2.80273C11.5147 2.80273 10.7274 2.88514 9.96958 3.03789C9.82396 3.06719 9.69594 3.15313 9.61369 3.27682C9.53144 3.40051 9.50169 3.5518 9.53099 3.69742C9.56028 3.84304 9.64623 3.97106 9.76992 4.05331C9.8936 4.13556 10.0449 4.16531 10.1905 4.13602C10.8775 3.99756 11.591 3.92273 12.32 3.92273C18.2057 3.92273 22.96 8.67712 22.96 14.5627C22.96 16.4153 22.4858 18.1487 21.6574 19.6607C20.5279 18.9099 19.3838 18.1413 19.1254 17.9829C18.6718 17.7051 18.0108 17.7462 17.3568 18.0923C17.009 18.2754 15.9592 18.8717 15.435 19.1707C14.9702 18.8414 13.8893 18.0106 12.2194 16.3401C10.5489 14.6702 9.71915 13.5892 9.39099 13.1255C9.68947 12.6019 10.2869 11.5527 10.4694 11.2049C10.82 10.5396 10.8584 9.87395 10.5733 9.42539C10.309 9.00875 7.89845 5.35331 7.64645 5.00555C7.25277 4.45899 6.29665 4.24119 5.43817 4.84039C5.40569 4.86279 2.19858 7.16854 2.24114 8.51758C2.36154 12.2321 5.96445 16.5913 8.96661 19.594C11.9688 22.5978 16.3266 26.2018 20.055 26.3227H20.0802C21.4007 26.3227 23.6956 23.1549 23.7169 23.1235C23.984 22.7438 24.1099 22.3064 24.0735 21.892C24.0371 21.4776 23.8453 21.1208 23.5474 20.912C23.4761 20.8619 22.907 20.4902 22.5926 20.2798C23.5369 18.5879 24.08 16.6388 24.08 14.5627C24.08 8.07235 18.8104 2.80273 12.32 2.80273ZM14.034 8.96273C13.0254 8.96273 12.32 9.60344 12.32 10.5235V10.5366H13.1447V10.5235C13.1447 10.0223 13.492 9.68461 14.0066 9.68461C14.4904 9.68461 14.8455 9.99876 14.8455 10.4316C14.8455 10.7794 14.6781 11.0353 14.0066 11.7168L12.3682 13.3924V14.0027H15.7818V13.2568H13.5735V13.1988L14.6027 12.1663C15.4377 11.3414 15.7074 10.905 15.7074 10.377C15.7074 9.55599 15.005 8.96273 14.034 8.96273ZM18.6408 9.08523C17.7717 10.3934 17.0811 11.4877 16.6382 12.302V13.0862H19.04V14.0027H19.8822V13.0862H20.5461V12.3424H19.8822V9.08523H18.6408ZM19.0061 9.80055H19.0532V12.3632H17.4519V12.3129C18.0242 11.3043 18.5357 10.4955 19.0061 9.80055Z" fill="#023E8A"/>
</svg>
