<svg width="26" height="26" viewBox="0 0 26 26" fill="none" xmlns="http://www.w3.org/2000/svg">
<path d="M20.2962 24.44C20.2881 24.44 20.28 24.44 20.2719 24.44C16.3637 24.3121 11.7853 20.5238 8.63078 17.3672C5.47218 14.2107 1.6839 9.63019 1.56203 5.74034C1.51734 4.37534 4.86687 1.948 4.9014 1.92362C5.77078 1.31831 6.73562 1.53362 7.13172 2.08206C7.39984 2.45378 9.9389 6.30097 10.2152 6.73769C10.5016 7.19066 10.4589 7.86503 10.1014 8.54144C9.90437 8.91722 9.25031 10.0669 8.94359 10.6032C9.27468 11.0744 10.1502 12.2302 11.958 14.038C13.7678 15.8458 14.9216 16.7233 15.3948 17.0544C15.9311 16.7477 17.0808 16.0936 17.4566 15.8966C18.1228 15.5432 18.7931 15.4985 19.2502 15.7788C19.7173 16.0652 23.5544 18.6164 23.9078 18.8622C24.2044 19.0714 24.3953 19.4289 24.4339 19.8453C24.4705 20.2658 24.3405 20.7107 24.0703 21.0986C24.048 21.1311 21.6491 24.44 20.2962 24.44Z" fill="white"/>
</svg>
