<svg width="28" height="28" viewBox="0 0 28 28" fill="none" xmlns="http://www.w3.org/2000/svg">
<path d="M21.8575 26.32C21.8487 26.32 21.84 26.32 21.8312 26.32C17.6225 26.1822 12.6919 22.1025 9.29469 18.7031C5.89313 15.3038 1.81344 10.3709 1.68219 6.18188C1.63406 4.71188 5.24125 2.09782 5.27844 2.07157C6.21469 1.41969 7.25375 1.65157 7.68031 2.24219C7.96906 2.64251 10.7034 6.78563 11.0009 7.25594C11.3094 7.74376 11.2634 8.47001 10.8784 9.19844C10.6663 9.60313 9.96187 10.8413 9.63156 11.4188C9.98813 11.9263 10.9309 13.1709 12.8778 15.1178C14.8269 17.0647 16.0694 18.0097 16.5791 18.3663C17.1566 18.0359 18.3947 17.3316 18.7994 17.1194C19.5169 16.7388 20.2387 16.6906 20.7309 16.9925C21.2341 17.3009 25.3662 20.0484 25.7469 20.3131C26.0662 20.5384 26.2719 20.9234 26.3134 21.3719C26.3528 21.8247 26.2128 22.3038 25.9219 22.7216C25.8978 22.7566 23.3144 26.32 21.8575 26.32Z" fill="#DC0101"/>
</svg>
