<svg width="52" height="52" viewBox="0 0 52 52" fill="none" xmlns="http://www.w3.org/2000/svg">
<path d="M26 0.6875C20.9937 0.6875 16.0998 2.17205 11.9371 4.95343C7.77452 7.7348 4.53015 11.6881 2.61431 16.3133C0.698468 20.9386 0.197195 26.0281 1.17388 30.9382C2.15057 35.8484 4.56135 40.3586 8.10137 43.8986C11.6414 47.4387 16.1516 49.8494 21.0618 50.8261C25.9719 51.8028 31.0614 51.3015 35.6867 49.3857C40.3119 47.4699 44.2652 44.2255 47.0466 40.0629C49.828 35.9003 51.3125 31.0063 51.3125 26C51.3125 19.2867 48.6457 12.8484 43.8987 8.10136C39.1516 3.35434 32.7133 0.6875 26 0.6875ZM27.0851 16.2361C29.386 16.2388 31.592 17.154 33.219 18.781C34.846 20.4081 35.7612 22.614 35.7639 24.9149H33.5938C33.592 23.1893 32.9057 21.5348 31.6854 20.3146C30.4652 19.0943 28.8107 18.408 27.0851 18.4062V16.2361ZM34.1135 41.1875C34.0477 41.1875 27.5323 41.0761 19.1538 32.8462C10.9239 24.4711 10.8125 17.9523 10.8125 17.8865C10.8125 17.0748 15.875 10.8125 16.9938 10.8125C17.382 10.8125 17.684 11.0757 18.0148 11.4706C18.8113 12.419 22.3331 17.9776 22.1711 18.9041C22.0935 19.3394 21.7239 19.6702 20.6641 20.5595C20.142 20.97 19.6533 21.4214 19.2028 21.9095C19.4185 22.8025 19.7391 23.6669 20.1579 24.4846C21.718 27.6925 24.3102 30.2834 27.5188 31.8421C28.3365 32.2609 29.2009 32.5815 30.0939 32.7972C30.582 32.3467 31.0334 31.8581 31.4439 31.3359C32.3332 30.2761 32.664 29.9066 33.0993 29.8289C34.0258 29.6602 39.5844 33.1888 40.5328 33.9853C40.9276 34.3228 41.1909 34.6181 41.1909 35.0062C41.1875 36.125 34.9252 41.1875 34.1135 41.1875ZM39.0174 24.9149C39.0138 21.7514 37.7555 18.7184 35.5186 16.4815C33.2816 14.2445 30.2486 12.9862 27.0851 12.9826V10.8125C30.8239 10.817 34.4083 12.3042 37.0521 14.9479C39.6958 17.5917 41.183 21.1761 41.1875 24.9149H39.0174Z" fill="#F7971D"/>
</svg>
