<svg width="13" height="13" viewBox="0 0 13 13" fill="none" xmlns="http://www.w3.org/2000/svg">
<g clip-path="url(#clip0_0_736)">
<path d="M6.5 0.52002C4.63632 0.52002 3.12 2.03635 3.12 3.90002C3.12 6.37611 6.16383 10.3888 6.29281 10.5585L6.5 10.8276L6.70718 10.5585C6.83617 10.3888 9.88 6.37611 9.88 3.90002C9.88 2.03635 8.36367 0.52002 6.5 0.52002ZM6.5 2.86002C7.07484 2.86002 7.54 3.32518 7.54 3.90002C7.54 4.47486 7.07484 4.94002 6.5 4.94002C5.92515 4.94002 5.46 4.47486 5.46 3.90002C5.46 3.32518 5.92515 2.86002 6.5 2.86002ZM1.89718 8.32002L0.410309 12.48H12.5897L11.1028 8.32002H9.1132C9.01164 8.49877 8.91008 8.67244 8.80851 8.84002H10.7372L11.8503 11.96H1.14968L2.26281 8.84002H4.19148C4.08992 8.67244 3.98836 8.49877 3.88679 8.32002H1.89718Z" fill="#696969"/>
</g>
<defs>
<clipPath id="clip0_0_736">
<rect width="13" height="13" fill="white"/>
</clipPath>
</defs>
</svg>
